<?xml version="1.0" standalone="no"?>
<!DOCTYPE svg PUBLIC "-//W3C//DTD SVG 20010904//EN"
 "http://www.w3.org/TR/2001/REC-SVG-20010904/DTD/svg10.dtd">
<svg version="1.0" xmlns="http://www.w3.org/2000/svg"
 width="964.000000pt" height="955.000000pt" viewBox="0 0 964.000000 955.000000"
 preserveAspectRatio="xMidYMid meet">

<g transform="translate(0.000000,955.000000) scale(0.100000,-0.100000)"
fill="#000000" stroke="none">
<path d="M3225 6666 c-252 -63 -394 -350 -287 -580 17 -36 195 -285 422 -591
217 -292 402 -544 413 -562 29 -50 34 -140 10 -194 -11 -24 -203 -303 -426
-619 -224 -316 -418 -598 -432 -626 -103 -206 -11 -466 203 -571 73 -37 79
-38 181 -38 87 0 116 5 164 24 126 50 113 33 742 974 l579 869 4 67 c3 52 0
79 -15 112 -26 58 -1115 1583 -1165 1632 -98 95 -258 136 -393 103z"/>
</g>
</svg>
